<?xml version="1.0" standalone="no"?>
<!DOCTYPE svg PUBLIC "-//W3C//DTD SVG 20010904//EN"
 "http://www.w3.org/TR/2001/REC-SVG-20010904/DTD/svg10.dtd">
<svg version="1.0" xmlns="http://www.w3.org/2000/svg"
 width="621.000000pt" height="621.000000pt" viewBox="0 0 621.000000 621.000000"
 preserveAspectRatio="xMidYMid meet">
<metadata>
Created by potrace 1.14, written by Peter Selinger 2001-2017
</metadata>
<g transform="translate(0.000000,621.000000) scale(0.100000,-0.100000)"
fill="#000000" stroke="none">
<path d="M1945 6070 c-66 -3 -112 -11 -134 -23 -19 -9 -60 -20 -90 -23 -66 -7
-121 -22 -121 -34 0 -5 -22 -13 -49 -19 -28 -6 -65 -20 -83 -31 -18 -11 -42
-20 -54 -20 -11 0 -35 -11 -54 -25 -19 -14 -40 -25 -48 -25 -25 0 -175 -92
-288 -176 -154 -115 -334 -297 -431 -436 -64 -93 -107 -159 -125 -193 -8 -16
-23 -43 -32 -60 -9 -16 -16 -36 -16 -43 0 -7 -9 -22 -20 -34 -11 -12 -23 -38
-26 -57 -4 -20 -16 -48 -26 -62 -11 -14 -22 -46 -25 -70 -4 -24 -17 -64 -30
-88 -12 -24 -23 -59 -23 -78 0 -18 -10 -62 -21 -96 -19 -56 -22 -90 -27 -337
-5 -288 5 -447 33 -513 8 -20 15 -54 15 -75 0 -22 11 -59 25 -86 14 -26 25
-58 25 -72 0 -31 26 -94 38 -94 6 0 13 -20 16 -44 4 -24 16 -52 26 -61 11 -10
20 -25 20 -34 0 -17 5 -27 60 -118 19 -32 37 -62 40 -68 11 -21 46 -72 80
-115 19 -25 40 -51 45 -58 66 -89 321 -337 363 -353 10 -4 26 -16 36 -28 11
-11 23 -21 28 -21 5 0 26 -13 46 -29 50 -40 160 -101 194 -108 15 -3 35 -14
44 -24 10 -11 35 -22 56 -25 21 -4 38 -11 38 -16 0 -14 65 -38 104 -38 20 0
36 -6 39 -14 7 -18 68 -36 119 -36 21 0 56 -10 78 -21 33 -17 67 -23 178 -29
75 -4 150 -12 165 -18 39 -16 154 -15 202 3 24 8 80 14 140 15 75 0 114 6 155
21 30 11 83 24 116 28 37 5 74 17 92 30 17 12 45 21 65 21 23 0 46 9 64 24 15
13 47 27 69 30 23 4 51 16 62 27 12 10 24 19 27 19 17 0 132 59 144 74 7 9 19
16 26 16 8 0 26 10 42 23 55 44 72 49 103 35 16 -7 34 -23 39 -35 6 -13 18
-26 26 -29 21 -9 19 -34 -7 -61 -17 -18 -23 -39 -26 -88 -6 -88 0 -103 61
-167 41 -44 62 -58 93 -63 59 -10 84 -23 84 -43 0 -11 9 -27 20 -37 10 -9 22
-37 26 -60 4 -27 15 -51 30 -64 13 -11 24 -32 24 -45 0 -14 11 -38 25 -54 14
-17 25 -35 25 -41 0 -6 11 -29 25 -51 14 -22 25 -43 25 -48 0 -5 9 -17 19 -26
11 -10 22 -28 25 -42 4 -13 11 -24 16 -24 5 0 16 -12 24 -28 8 -15 23 -38 35
-52 52 -65 68 -83 88 -106 13 -13 27 -33 33 -44 16 -29 34 -49 209 -228 87
-89 164 -162 169 -162 6 0 17 -8 24 -18 7 -11 23 -24 35 -31 13 -6 33 -21 47
-34 22 -21 80 -69 101 -85 6 -5 26 -17 45 -28 19 -10 39 -25 43 -31 4 -7 14
-13 21 -13 7 0 21 -9 31 -20 10 -11 27 -23 39 -26 11 -4 35 -17 51 -30 17 -12
42 -25 57 -29 15 -4 29 -13 32 -20 3 -8 24 -19 48 -26 24 -7 51 -21 60 -30 10
-10 38 -21 62 -24 25 -4 52 -15 61 -25 10 -12 38 -21 71 -25 45 -6 59 -14 94
-48 l41 -42 103 -3 c60 -3 118 0 138 7 18 6 62 40 97 76 36 36 70 65 77 65 7
0 15 8 18 18 3 9 30 42 58 74 101 108 108 121 108 218 0 101 -10 130 -64 187
-40 41 -46 53 -46 90 0 31 -7 49 -25 69 -17 19 -25 38 -25 64 0 26 -7 43 -25
60 -14 13 -25 33 -25 44 0 12 -11 38 -25 58 -14 20 -25 42 -25 48 0 16 -61
120 -70 120 -4 0 -10 10 -14 23 -3 12 -14 32 -24 43 -11 11 -23 30 -27 43 -3
12 -17 29 -31 37 -13 9 -24 22 -24 28 0 7 -11 22 -25 34 -14 12 -25 27 -25 33
0 6 -11 20 -25 31 -14 11 -25 26 -25 33 0 8 -11 22 -25 31 -14 9 -25 20 -25
26 0 5 -31 40 -70 78 -38 38 -70 72 -70 75 0 9 -66 75 -75 75 -4 0 -28 21 -55
48 -90 89 -149 142 -158 142 -4 0 -19 11 -32 25 -13 14 -29 25 -36 25 -6 0
-19 11 -28 25 -9 14 -22 25 -30 25 -7 0 -21 10 -32 21 -10 12 -32 28 -49 36
-16 8 -52 30 -80 49 -27 19 -57 34 -66 34 -8 0 -26 11 -39 25 -13 14 -33 25
-45 25 -12 0 -34 11 -49 25 -18 17 -39 25 -62 25 -24 0 -41 7 -53 21 -10 12
-34 24 -56 28 -38 6 -40 8 -57 66 -15 50 -28 69 -76 113 -31 29 -68 55 -80 59
-34 8 -152 -3 -165 -16 -19 -19 -38 -12 -78 29 -22 22 -44 40 -50 40 -18 0 -2
59 26 100 14 20 25 39 25 43 0 7 8 20 57 93 12 17 26 49 32 70 6 21 20 53 31
69 11 17 20 38 20 47 0 9 9 32 19 50 11 18 23 51 26 73 4 22 15 58 25 80 10
22 21 78 25 125 5 55 13 91 23 103 22 25 35 230 27 447 -5 144 -10 181 -25
210 -12 21 -23 72 -28 128 -6 56 -15 99 -25 110 -8 9 -18 39 -22 66 -3 26 -15
62 -26 80 -10 17 -19 37 -19 44 0 12 -40 94 -142 295 -9 18 -23 39 -32 46 -9
8 -16 20 -16 27 0 13 -21 40 -77 101 -13 13 -23 26 -23 29 0 10 -122 152 -172
200 -97 94 -276 235 -351 277 -106 60 -238 127 -250 127 -7 0 -34 12 -62 25
-27 14 -59 25 -70 25 -11 0 -38 9 -60 21 -21 12 -67 25 -102 30 -35 5 -74 16
-86 24 -45 29 -396 42 -702 25z"/>
</g>
</svg>
